<svg width="175" height="56" viewBox="0 0 175 56" fill="none" xmlns="http://www.w3.org/2000/svg">
<rect x="0.75" y="0.75" width="173.5" height="54.5" rx="7.25" fill="white"/>
<path d="M33.5825 33V22.712H37.3345C38.5505 22.712 39.4785 22.9973 40.1185 23.568C40.7638 24.1387 41.0865 24.8933 41.0865 25.832C41.0865 26.76 40.7638 27.5093 40.1185 28.08C39.4785 28.6507 38.5505 28.936 37.3345 28.936H35.2945V33H33.5825ZM39.2065 33L36.4225 28.216H38.2545L41.4385 33H39.2065ZM35.2945 27.776H37.1665C37.8758 27.776 38.4145 27.6107 38.7825 27.28C39.1505 26.944 39.3345 26.512 39.3345 25.984C39.3345 25.44 39.1638 25.0053 38.8225 24.68C38.4865 24.3493 37.9905 24.184 37.3345 24.184H35.2945V27.776ZM46.5708 33.216C45.9094 33.216 45.3068 33.0453 44.7628 32.704C44.2241 32.3627 43.7921 31.8853 43.4668 31.272C43.1468 30.6587 42.9868 29.9467 42.9868 29.136C42.9868 28.2827 43.1468 27.552 43.4668 26.944C43.7868 26.336 44.2161 25.8693 44.7548 25.544C45.2988 25.2187 45.9041 25.056 46.5708 25.056C47.1841 25.056 47.7094 25.1787 48.1468 25.424C48.5841 25.6693 48.9361 26 49.2028 26.416C49.4748 26.832 49.6588 27.304 49.7548 27.832C49.8508 28.3547 49.8614 28.896 49.7868 29.456H44.3548V28.504H48.5948L48.2268 28.744C48.2428 28.472 48.2294 28.2 48.1868 27.928C48.1441 27.656 48.0614 27.408 47.9388 27.184C47.8214 26.9547 47.6534 26.7707 47.4348 26.632C47.2161 26.4933 46.9388 26.424 46.6028 26.424C46.1868 26.424 45.8348 26.528 45.5468 26.736C45.2641 26.944 45.0508 27.224 44.9068 27.576C44.7628 27.928 44.6908 28.32 44.6908 28.752V29.44C44.6908 29.904 44.7601 30.3147 44.8988 30.672C45.0374 31.0293 45.2454 31.312 45.5228 31.52C45.8001 31.728 46.1494 31.832 46.5708 31.832C46.9761 31.832 47.3121 31.7387 47.5788 31.552C47.8508 31.36 48.0214 31.0747 48.0908 30.696H49.8268C49.7468 31.1973 49.5601 31.6373 49.2668 32.016C48.9734 32.3947 48.5974 32.6907 48.1388 32.904C47.6801 33.112 47.1574 33.216 46.5708 33.216ZM57.033 33L56.817 31.168V28.008C56.817 27.4213 56.697 26.992 56.457 26.72C56.217 26.448 55.825 26.312 55.281 26.312C54.9663 26.312 54.6917 26.3573 54.457 26.448C54.2223 26.5387 54.0383 26.6747 53.905 26.856C53.777 27.032 53.713 27.2507 53.713 27.512H51.833C51.833 26.9307 51.9717 26.4613 52.249 26.104C52.5317 25.7413 52.929 25.4773 53.441 25.312C53.9583 25.1413 54.5717 25.056 55.281 25.056C55.9263 25.056 56.4917 25.1627 56.977 25.376C57.4677 25.584 57.849 25.9093 58.121 26.352C58.393 26.7947 58.529 27.3653 58.529 28.064V33H57.033ZM54.473 33.216C53.817 33.216 53.2703 33.1013 52.833 32.872C52.401 32.6427 52.0757 32.3413 51.857 31.968C51.6383 31.5947 51.529 31.192 51.529 30.76C51.529 30.264 51.657 29.8507 51.913 29.52C52.1743 29.1893 52.537 28.944 53.001 28.784C53.4703 28.6187 54.017 28.536 54.641 28.536C55.057 28.536 55.4543 28.5707 55.833 28.64C56.217 28.704 56.5983 28.7947 56.977 28.912V29.928C56.673 29.8213 56.3397 29.7387 55.977 29.68C55.6197 29.6213 55.2837 29.592 54.969 29.592C54.505 29.592 54.1183 29.6827 53.809 29.864C53.505 30.04 53.353 30.3387 53.353 30.76C53.353 31.0747 53.4757 31.344 53.721 31.568C53.9663 31.792 54.3557 31.904 54.889 31.904C55.2837 31.904 55.625 31.816 55.913 31.64C56.201 31.4587 56.4223 31.2347 56.577 30.968C56.737 30.7013 56.817 30.4373 56.817 30.176H57.225C57.225 30.72 57.1183 31.224 56.905 31.688C56.697 32.1467 56.3877 32.5173 55.977 32.8C55.5717 33.0773 55.0703 33.216 54.473 33.216ZM64.1801 33.216C63.5401 33.216 62.9535 33.0453 62.4201 32.704C61.8868 32.3627 61.4628 31.8853 61.1481 31.272C60.8335 30.6533 60.6761 29.928 60.6761 29.096C60.6761 28.2747 60.8281 27.5627 61.1321 26.96C61.4415 26.352 61.8521 25.8827 62.3641 25.552C62.8761 25.2213 63.4441 25.056 64.0681 25.056C64.6388 25.056 65.1348 25.1947 65.5561 25.472C65.9775 25.744 66.3001 26.1467 66.5241 26.68C66.7535 27.208 66.8681 27.856 66.8681 28.624H66.3081C66.3081 28.192 66.2201 27.824 66.0441 27.52C65.8681 27.216 65.6388 26.9867 65.3561 26.832C65.0735 26.672 64.7668 26.592 64.4361 26.592C64.0521 26.592 63.7055 26.696 63.3961 26.904C63.0921 27.1067 62.8521 27.3973 62.6761 27.776C62.5001 28.1493 62.4121 28.5893 62.4121 29.096C62.4121 29.6187 62.5001 30.072 62.6761 30.456C62.8521 30.84 63.0921 31.1387 63.3961 31.352C63.7055 31.56 64.0495 31.664 64.4281 31.664C64.7428 31.664 65.0415 31.5813 65.3241 31.416C65.6121 31.2453 65.8468 31.008 66.0281 30.704C66.2148 30.3947 66.3081 30.0293 66.3081 29.608H66.8681C66.8681 30.4027 66.7455 31.0693 66.5001 31.608C66.2601 32.1413 65.9348 32.544 65.5241 32.816C65.1188 33.0827 64.6708 33.216 64.1801 33.216ZM66.6201 33L66.3081 31.112V22.04H68.0281V33H66.6201ZM75.0669 22.712H77.5229L80.5949 29.224H80.4429L83.5149 22.712H85.8909V33H84.1629V24.64H84.4349L81.0749 31.832H79.9549L76.6109 24.68H76.7789V33H75.0669V22.712ZM91.9179 33.216C91.2192 33.216 90.5872 33.064 90.0219 32.76C89.4619 32.456 89.0165 32.0027 88.6859 31.4C88.3552 30.7973 88.1899 30.0453 88.1899 29.144C88.1899 28.2267 88.3552 27.4667 88.6859 26.864C89.0165 26.2613 89.4619 25.8107 90.0219 25.512C90.5872 25.208 91.2192 25.056 91.9179 25.056C92.6165 25.056 93.2432 25.208 93.7979 25.512C94.3579 25.8107 94.8005 26.2613 95.1259 26.864C95.4565 27.4667 95.6219 28.2267 95.6219 29.144C95.6219 30.0453 95.4565 30.7973 95.1259 31.4C94.8005 32.0027 94.3579 32.456 93.7979 32.76C93.2432 33.064 92.6165 33.216 91.9179 33.216ZM91.8699 31.72C92.2752 31.72 92.6299 31.6213 92.9339 31.424C93.2432 31.2267 93.4832 30.936 93.6539 30.552C93.8245 30.168 93.9099 29.6987 93.9099 29.144C93.9099 28.296 93.7392 27.6507 93.3979 27.208C93.0619 26.76 92.5872 26.536 91.9739 26.536C91.5632 26.536 91.2032 26.6347 90.8939 26.832C90.5899 27.0293 90.3525 27.3227 90.1819 27.712C90.0112 28.1013 89.9259 28.5787 89.9259 29.144C89.9259 29.976 90.0965 30.6133 90.4379 31.056C90.7792 31.4987 91.2565 31.72 91.8699 31.72ZM97.9106 33V25.24H99.6226V33H97.9106ZM99.1826 29.576C99.1826 28.5733 99.292 27.744 99.5106 27.088C99.7293 26.4267 100.028 25.936 100.407 25.616C100.785 25.2907 101.217 25.128 101.703 25.128C101.847 25.128 101.977 25.1387 102.095 25.16C102.217 25.176 102.34 25.2027 102.463 25.24L102.415 26.944C102.271 26.9067 102.116 26.8773 101.951 26.856C101.791 26.8293 101.644 26.816 101.511 26.816C101.089 26.816 100.737 26.9253 100.455 27.144C100.177 27.3573 99.9693 27.6693 99.8306 28.08C99.692 28.4907 99.6226 28.9893 99.6226 29.576H99.1826ZM106.883 33.216C106.222 33.216 105.619 33.0453 105.075 32.704C104.537 32.3627 104.105 31.8853 103.779 31.272C103.459 30.6587 103.299 29.9467 103.299 29.136C103.299 28.2827 103.459 27.552 103.779 26.944C104.099 26.336 104.529 25.8693 105.067 25.544C105.611 25.2187 106.217 25.056 106.883 25.056C107.497 25.056 108.022 25.1787 108.459 25.424C108.897 25.6693 109.249 26 109.515 26.416C109.787 26.832 109.971 27.304 110.067 27.832C110.163 28.3547 110.174 28.896 110.099 29.456H104.667V28.504H108.907L108.539 28.744C108.555 28.472 108.542 28.2 108.499 27.928C108.457 27.656 108.374 27.408 108.251 27.184C108.134 26.9547 107.966 26.7707 107.747 26.632C107.529 26.4933 107.251 26.424 106.915 26.424C106.499 26.424 106.147 26.528 105.859 26.736C105.577 26.944 105.363 27.224 105.219 27.576C105.075 27.928 105.003 28.32 105.003 28.752V29.44C105.003 29.904 105.073 30.3147 105.211 30.672C105.35 31.0293 105.558 31.312 105.835 31.52C106.113 31.728 106.462 31.832 106.883 31.832C107.289 31.832 107.625 31.7387 107.891 31.552C108.163 31.36 108.334 31.0747 108.403 30.696H110.139C110.059 31.1973 109.873 31.6373 109.579 32.016C109.286 32.3947 108.91 32.6907 108.451 32.904C107.993 33.112 107.47 33.216 106.883 33.216Z" fill="#184B26"/>
<path d="M140.707 28.7071C141.098 28.3166 141.098 27.6834 140.707 27.2929L136.707 23.2929C136.317 22.9024 135.683 22.9024 135.293 23.2929C134.902 23.6834 134.902 24.3166 135.293 24.7071L137.586 27L122 27C121.448 27 121 27.4477 121 28C121 28.5523 121.448 29 122 29L137.586 29L135.293 31.2929C134.902 31.6834 134.902 32.3166 135.293 32.7071C135.683 33.0976 136.317 33.0976 136.707 32.7071L140.707 28.7071Z" fill="#184B26"/>
<rect x="0.75" y="0.75" width="173.5" height="54.5" rx="7.25" stroke="#226A35" stroke-width="1.5"/>
</svg>
