<svg width="30" height="28" viewBox="0 0 30 28" fill="none" xmlns="http://www.w3.org/2000/svg">
    <path fill-rule="evenodd" clip-rule="evenodd" d="M21.1148 1.17517C21.3118 1.21453 21.4764 1.24562 21.6388 1.26564C21.7886 1.19984 21.9373 1.1228 22.1147 1.02851L22.1694 0.999425C22.3518 0.902229 22.5837 0.778664 22.8247 0.674996C23.4204 0.418715 24.1348 0.253293 25.0301 0.449353C27.0674 0.895493 28.1735 2.75193 28.1205 4.57763C28.0785 6.02316 27.2927 7.33145 26.5466 8.28315C25.7726 9.27036 24.8769 10.0791 24.3146 10.5483C23.5933 11.1502 22.6049 11.2951 21.7412 10.9258C21.0678 10.6378 19.9776 10.1203 18.9528 9.39689C17.9648 8.69952 16.8364 7.67198 16.3811 6.29939C15.806 4.56581 16.3325 2.4699 18.1559 1.45755C18.9572 1.01266 19.689 0.965977 20.3332 1.0404C20.5938 1.0705 20.8515 1.12228 21.0541 1.163L21.1148 1.17517ZM19.4503 3.78898C19.6495 3.6784 19.7898 3.66202 20.0272 3.68945C20.1724 3.70623 20.323 3.73633 20.5528 3.78225L20.5925 3.79019C20.8258 3.83679 21.1228 3.89488 21.4529 3.92797C21.8368 3.96647 22.2247 3.90958 22.5813 3.76247C22.888 3.63599 23.1558 3.49506 23.3659 3.38343L23.4017 3.36442C23.6086 3.25446 23.7442 3.18238 23.8785 3.12461C24.098 3.03017 24.2371 3.00556 24.4596 3.05429C25.0339 3.18005 25.4774 3.72757 25.455 4.5002C25.4382 5.07748 25.0873 5.82232 24.4479 6.63789C23.8701 7.37498 23.1788 8.01615 22.6896 8.43063C22.102 8.17407 21.2557 7.75841 20.4906 7.2183C19.6439 6.62068 19.0939 6.00796 18.9121 5.4598C18.6688 4.72616 18.9364 4.07434 19.4503 3.78898Z" fill="white"/>
    <path fill-rule="evenodd" clip-rule="evenodd" d="M0.333008 11.3333C0.333008 9.86053 1.52692 8.66663 2.99967 8.66663H5.66634C7.1391 8.66663 8.33301 9.86053 8.33301 11.3333V11.764C9.44446 11.2791 10.7174 10.8933 12.1358 10.6812C13.5602 10.4682 14.9218 10.8573 15.9923 11.1633C16.1574 11.2104 16.3155 11.2556 16.4659 11.2963C17.6811 11.6253 18.7149 11.8004 19.9114 11.4016C20.9939 11.0408 22.0776 10.953 22.974 11.4467C23.9228 11.9692 24.2551 12.9084 24.3194 13.6717C24.3473 14.0023 24.3105 14.4503 24.0511 14.8816C23.8445 15.2252 23.56 15.5113 23.2639 15.7482C24.2726 15.4252 25.3341 15.1006 26.2666 14.9736C27.1562 14.8524 28.3933 14.8412 29.2758 15.7237C30.292 16.74 29.9915 18.0605 29.5775 18.9103C29.1453 19.7974 28.3772 20.6999 27.5064 21.5264C25.7452 23.198 23.2122 24.8865 20.8568 25.8927C17.9694 27.1262 14.6048 26.3701 12.0953 25.6528C11.5239 25.4895 11.0106 25.3323 10.5385 25.1878C9.88081 24.9864 9.30309 24.8095 8.76003 24.6747C8.60232 24.6355 8.46036 24.6035 8.33301 24.5781V24.6666C8.33301 26.1394 7.1391 27.3333 5.66634 27.3333H2.99967C1.52692 27.3333 0.333008 26.1394 0.333008 24.6666V11.3333ZM8.33301 14.7426C9.439 14.1104 10.8492 13.5699 12.5302 13.3185C13.3423 13.1971 14.0913 13.4053 15.2001 13.7136C15.3797 13.7636 15.5688 13.8162 15.7692 13.8704C17.1165 14.2351 18.7888 14.5867 20.7546 13.9314C21.0791 13.8233 21.3042 13.7843 21.4527 13.7736L21.416 13.7988C21.157 13.9736 20.7997 14.1657 20.3492 14.3661C19.4493 14.7665 18.2939 15.1493 17.0777 15.4772C16.1592 15.7248 15.3751 16.4418 15.2264 17.4062C15.1488 17.9095 15.2584 18.4805 15.6545 18.9439C16.043 19.3984 16.5795 19.6027 17.0867 19.657C18.2686 19.7837 19.5134 19.5883 20.6622 19.3102C21.6588 19.0689 22.6725 18.7413 23.5877 18.4456C23.7312 18.3992 23.8722 18.3536 24.0104 18.3093C25.0749 17.9677 25.9427 17.709 26.6264 17.6159C26.9351 17.5738 27.1302 17.5765 27.2483 17.5895C27.2315 17.6319 27.2093 17.6825 27.1801 17.7424C26.9521 18.2106 26.448 18.8545 25.6706 19.5922C24.1355 21.0492 21.8685 22.5607 19.8092 23.4404C17.8844 24.2627 15.3823 23.8188 12.8282 23.0888C12.3756 22.9595 11.9032 22.8155 11.4379 22.6736C10.7065 22.4507 9.99238 22.233 9.40255 22.0866C9.04826 21.9986 8.68541 21.9214 8.33301 21.8758V14.7426ZM5.66634 11.3333V24.6666H2.99967V11.3333H5.66634ZM27.2964 17.4053C27.2983 17.4041 27.2998 17.4147 27.295 17.4409C27.2921 17.4195 27.2945 17.4065 27.2964 17.4053ZM17.7337 18.0662C17.7334 18.066 17.7361 18.0642 17.7426 18.0615C17.7373 18.0651 17.734 18.0664 17.7337 18.0662Z" fill="white"/>
    </svg>
    