<svg width="30" height="28" viewBox="0 0 30 28" fill="none" xmlns="http://www.w3.org/2000/svg">
    <path fill-rule="evenodd" clip-rule="evenodd" d="M10.9997 0.666626C10.9119 0.666626 10.8243 0.675299 10.7382 0.692518L5.48801 1.74256C4.16252 2.00765 3.06059 2.92426 2.55856 4.17932L0.428383 9.50477C0.255566 9.93682 0.320491 10.4277 0.599685 10.8L11.7997 25.7333C12.5551 26.7405 13.7407 27.3333 14.9997 27.3333C16.2587 27.3333 17.4443 26.7405 18.1997 25.7333L29.3997 10.8C29.6789 10.4277 29.7438 9.93682 29.571 9.50477L27.4408 4.17932C26.9388 2.92426 25.8368 2.00765 24.5114 1.74256L19.2612 0.692518C19.1751 0.675299 19.0875 0.666626 18.9997 0.666626H10.9997ZM25.1725 11.9918L19.2304 19.9146L22.5976 12.5068L25.1725 11.9918ZM26.4997 9.00688L22.6106 9.78471L20.8825 3.73625L23.9884 4.35744C24.4302 4.4458 24.7975 4.75134 24.9649 5.16969L26.4997 9.00688ZM10.1007 9.99996L12.0054 3.33329H17.9939L19.8987 9.99996H10.1007ZM14.9997 22.7778L10.4037 12.6666H19.5957L14.9997 22.7778ZM10.769 19.9146L7.40181 12.5068L4.82691 11.9918L10.769 19.9146ZM5.0345 5.16969L3.49963 9.00688L7.38878 9.78471L9.11691 3.73625L6.01098 4.35744C5.56916 4.4458 5.20184 4.75134 5.0345 5.16969Z" fill="white"/>
    </svg>
    