<svg width="30" height="30" viewBox="0 0 30 30" fill="none" xmlns="http://www.w3.org/2000/svg">
    <path fill-rule="evenodd" clip-rule="evenodd" d="M14.9997 0.333374C10.2004 0.333374 5.93949 2.6399 3.26594 6.19927C1.42463 8.65067 0.333008 11.6998 0.333008 15C0.333008 18.3003 1.42463 21.3494 3.26594 23.8008C5.93949 27.3602 10.2004 29.6667 14.9997 29.6667C19.7989 29.6667 24.0599 27.3602 26.7334 23.8008C28.5747 21.3494 29.6663 18.3003 29.6663 15C29.6663 11.6998 28.5747 8.65067 26.7334 6.19927C24.0599 2.6399 19.7989 0.333374 14.9997 0.333374ZM5.53498 8.22351C5.83387 8.19579 6.18593 8.16395 6.57892 8.12982C6.46979 9.74928 6.37427 11.6594 6.34343 13.6667H3.07282C3.2922 11.6799 3.99624 9.84077 5.06443 8.26783C5.20104 8.25476 5.35873 8.23986 5.53498 8.22351ZM5.06442 21.7322C3.99624 20.1593 3.2922 18.3202 3.07282 16.3334H6.34343C6.37427 18.3406 6.46979 20.2508 6.57892 21.8703C6.18593 21.8361 5.83387 21.8043 5.53498 21.7766C5.35873 21.7602 5.20104 21.7453 5.06442 21.7322ZM9.01042 16.3334C9.04364 18.4329 9.14956 20.4286 9.26665 22.0832C10.699 22.1849 12.2561 22.2752 13.6663 22.3137V16.3334H9.01042ZM9.5588 25.4879C9.56688 25.5669 9.57458 25.6412 9.58185 25.7106C10.8332 26.3448 12.2106 26.766 13.6663 26.9268V24.9813C12.3164 24.946 10.8501 24.8648 9.4884 24.7718C9.51247 25.026 9.53502 25.2543 9.55532 25.4537C9.55649 25.4652 9.55765 25.4766 9.5588 25.4879ZM20.4175 25.7106C19.1661 26.3448 17.7888 26.766 16.333 26.9268V24.9813C17.6829 24.946 19.1493 24.8648 20.5109 24.7718C20.4869 25.026 20.4643 25.2543 20.444 25.4537C20.4347 25.5456 20.4258 25.6313 20.4175 25.7106ZM20.7327 22.0832C19.3004 22.1849 17.7433 22.2752 16.333 22.3137V16.3334H20.9889C20.9557 18.4329 20.8498 20.4286 20.7327 22.0832ZM20.7327 7.91693C20.8498 9.57152 20.9557 11.5672 20.9889 13.6667H16.333V7.68638C17.7433 7.72483 19.3004 7.81515 20.7327 7.91693ZM20.5109 5.22832C19.1493 5.13527 17.6829 5.05409 16.333 5.0188V3.07323C17.7888 3.23407 19.1661 3.65523 20.4175 4.28948C20.4258 4.36879 20.4347 4.45451 20.444 4.54636C20.4643 4.74578 20.4869 4.97405 20.5109 5.22832ZM9.4884 5.22832C10.8501 5.13527 12.3164 5.05409 13.6663 5.0188V3.07323C12.2106 3.23407 10.8332 3.65523 9.58186 4.28949C9.57354 4.36879 9.56467 4.45451 9.55532 4.54636C9.53502 4.74578 9.51247 4.97405 9.4884 5.22832ZM13.6663 7.68638C12.2561 7.72483 10.6989 7.81515 9.26665 7.91693C9.14956 9.57152 9.04364 11.5672 9.01042 13.6667H13.6663V7.68638ZM24.4644 8.22351C24.1655 8.19579 23.8134 8.16395 23.4204 8.12982C23.5296 9.74928 23.6251 11.6594 23.6559 13.6667H26.9265C26.7071 11.6799 26.0031 9.84077 24.9349 8.26783C24.7983 8.25476 24.6406 8.23986 24.4644 8.22351ZM23.4204 21.8703C23.5296 20.2508 23.6251 18.3406 23.6559 16.3334H26.9265C26.7071 18.3202 26.0031 20.1593 24.9349 21.7322C24.7983 21.7453 24.6406 21.7602 24.4644 21.7766C24.1655 21.8043 23.8134 21.8361 23.4204 21.8703Z" fill="white"/>
    </svg>
    