<svg width="20" height="20" viewBox="0 0 20 20" fill="none" xmlns="http://www.w3.org/2000/svg">
<path fill-rule="evenodd" clip-rule="evenodd" d="M8.22903 2.33959C6.92728 1.03784 4.81673 1.03785 3.51499 2.33959L3.06871 2.78587C2.4534 3.40118 2.03255 4.32324 2.2726 5.32207C2.64061 6.85333 3.74802 9.64369 7.05052 12.9462C10.353 16.2487 13.1434 17.3561 14.6746 17.7241C15.6735 17.9642 16.5955 17.5433 17.2108 16.928L17.6571 16.4817C18.9589 15.18 18.9589 13.0694 17.6571 11.7677L16.8831 10.9936C15.822 9.93257 14.1828 9.71128 12.8784 10.453L12.7979 10.4988C12.2634 10.8027 11.6493 10.7779 11.2143 10.463C10.8633 10.209 10.5278 9.94164 10.2914 9.70529C10.0551 9.46894 9.78773 9.13345 9.53369 8.78242C9.21886 8.3474 9.19402 7.73333 9.49796 7.1988L9.54371 7.11835C10.2854 5.81394 10.0641 4.17471 9.0031 3.11366L8.22903 2.33959ZM4.6935 3.5181C5.34437 2.86723 6.39965 2.86723 7.05052 3.5181L7.82458 4.29217C8.35511 4.82269 8.46575 5.64231 8.09489 6.29452L8.04915 6.37496C7.46173 7.40801 7.44112 8.73374 8.18352 9.75956C8.45621 10.1364 8.78392 10.5548 9.11291 10.8838C9.44191 11.2128 9.86036 11.5405 10.2372 11.8132C11.263 12.5556 12.5887 12.535 13.6218 11.9476L13.7022 11.9018C14.3544 11.531 15.174 11.6416 15.7045 12.1721L16.4786 12.9462C17.1295 13.5971 17.1295 14.6523 16.4786 15.3032L16.0323 15.7495C15.71 16.0719 15.3546 16.1734 15.0641 16.1036C13.8399 15.8094 11.3204 14.8591 8.22903 11.7677C5.13764 8.67629 4.18733 6.15681 3.89312 4.93261C3.8233 4.64207 3.92484 4.28676 4.24722 3.96438L4.6935 3.5181Z" fill="white"/>
</svg>
