<svg width="24" height="28" viewBox="0 0 24 28" fill="none" xmlns="http://www.w3.org/2000/svg">
    <path d="M12 26.4445C14.8444 26.2963 20.96 24.6667 22.6667 19.3334C14.1333 19.3334 12 24.0741 12 26.4445Z" stroke="white" stroke-width="2" stroke-linecap="round" stroke-linejoin="round"/>
    <path d="M12 26.4445C9.15556 26.2963 3.04 24.6667 1.33333 19.3334C9.86667 19.3334 12 24.0741 12 26.4445Z" stroke="white" stroke-width="2" stroke-linecap="round" stroke-linejoin="round"/>
    <path d="M12 26.4444V15.7778M12 3.33332C15.1792 3.3891 18.5189 2.16019 19.6221 1.7142C19.7769 1.65164 19.9406 1.79296 19.9002 1.95488L19.1409 4.99166C19.1211 5.07099 19.1111 5.15244 19.1111 5.23421V8.66665C19.1111 12.594 15.9273 15.7778 12 15.7778V15.7778C8.07261 15.7778 4.88886 12.594 4.88886 8.66665V5.2342C4.88886 5.15244 4.87884 5.07099 4.85901 4.99167L4.09333 1.92886C4.05405 1.77176 4.20624 1.63273 4.35874 1.68719C5.48669 2.09 9.06083 3.28176 12 3.33332Z" stroke="white" stroke-width="2" stroke-linecap="round"/>
    </svg>
    